<svg xmlns="http://www.w3.org/2000/svg" version="1.1" xmlns:xlink="http://www.w3.org/1999/xlink" xmlns:svgjs="http://svgjs.com/svgjs" width="1440" height="250" preserveAspectRatio="none" viewBox="0 0 1440 250"><g mask="url(&quot;#SvgjsMask1012&quot;)" fill="none"><rect width="1440" height="250" x="0" y="0" fill="rgba(0, 20, 31, 1)"></rect><path d="M36 250L286 0L341.5 0L91.5 250z" fill="url(#SvgjsLinearGradient1013)"></path><path d="M247.60000000000002 250L497.6 0L802.1 0L552.1 250z" fill="url(#SvgjsLinearGradient1013)"></path><path d="M521.2 250L771.2 0L1047.2 0L797.2 250z" fill="url(#SvgjsLinearGradient1013)"></path><path d="M718.8000000000001 250L968.8000000000001 0L1291.3000000000002 0L1041.3000000000002 250z" fill="url(#SvgjsLinearGradient1013)"></path><path d="M1420 250L1170 0L885 0L1135 250z" fill="url(#SvgjsLinearGradient1014)"></path><path d="M1162.4 250L912.4000000000001 0L766.9000000000001 0L1016.9000000000001 250z" fill="url(#SvgjsLinearGradient1014)"></path><path d="M931.8 250L681.8 0L392.29999999999995 0L642.3 250z" fill="url(#SvgjsLinearGradient1014)"></path><path d="M698.1999999999999 250L448.19999999999993 0L214.19999999999993 0L464.19999999999993 250z" fill="url(#SvgjsLinearGradient1014)"></path><path d="M1234.4483475571035 250L1440 44.4483475571034L1440 250z" fill="url(#SvgjsLinearGradient1013)"></path><path d="M0 250L205.5516524428966 250L 0 44.4483475571034z" fill="url(#SvgjsLinearGradient1014)"></path></g><defs><mask id="SvgjsMask1012"><rect width="1440" height="250" fill="#ffffff"></rect></mask><linearGradient x1="0%" y1="100%" x2="100%" y2="0%" id="SvgjsLinearGradient1013"><stop stop-color="rgba(0, 96, 122, 0.3)" offset="0"></stop><stop stop-opacity="0" stop-color="rgba(0, 96, 122, 0.3)" offset="0.66"></stop></linearGradient><linearGradient x1="100%" y1="100%" x2="0%" y2="0%" id="SvgjsLinearGradient1014"><stop stop-color="rgba(0, 96, 122, 0.3)" offset="0"></stop><stop stop-opacity="0" stop-color="rgba(0, 96, 122, 0.3)" offset="0.66"></stop></linearGradient></defs></svg>